<svg xmlns="http://www.w3.org/2000/svg" xmlns:xlink="http://www.w3.org/1999/xlink" width="603" height="110" viewBox="0 0 603 110"><defs><clipPath id="b"><rect width="603" height="110"/></clipPath></defs><g id="a" clip-path="url(#b)"><rect width="603" height="110" fill="none"/><g transform="translate(-55.184 -56.042)"><path d="M120.314,58.609l3.995-10.565a6.965,6.965,0,0,1,6.766-5.514l15.6-.009a4.34,4.34,0,0,1,4.382,5.813l-1.8,4.826-10.494,5.43,3-7.817c0-.732-.165-.9-.778-.946l-8.1-.027c-.472.058-.943.069-1.1.574l-3.143,8.236h-8.336Z" transform="translate(47.421 49.552)" fill="#006e42" fill-rule="evenodd"/><path d="M51.625,58.529l4.569-12.043a6.78,6.78,0,0,1,6.2-4.026l14.448.039-2.8,7.256-10.051.05c-.211-.172-.88.284-.916.751l-3.022,7.984-8.426-.012Z" transform="translate(30.956 49.537)" fill="#006e42" fill-rule="evenodd"/><path d="M71,58.5l3.995-10.5a6.965,6.965,0,0,1,6.766-5.514l15.6-.009a4.34,4.34,0,0,1,4.382,5.813L97.913,58.522l-8.46.019,3-7.817c0-.732-.165-.9-.778-.946l-8.1-.027c-.472.058-.943.069-1.1.574L79.333,58.56,71,58.5Z" transform="translate(35.599 49.54)" fill="#006e42" fill-rule="evenodd"/><path d="M145.226,58.6l3.995-10.565a6.965,6.965,0,0,1,6.766-5.514l15.6-.009a4.34,4.34,0,0,1,4.382,5.813l-3.831,10.237-8.46.019,3-7.817c0-.732-.165-.9-.778-.946l-8.1-.027c-.472.058-.943.069-1.1.574L153.562,58.6h-8.336Z" transform="translate(53.393 49.549)" fill="#006e42" fill-rule="evenodd"/><path d="M95.9,59.705l4.315-11.629c1.858-3.976,5.151-4.514,6.507-4.452l13.74.047,2.205-5.918,8.387-.129L122.692,59.7l-8.311-.022,3.256-8.773-9.347.062a1.558,1.558,0,0,0-.966.546l-3.094,8.2-8.33,0Z" transform="translate(41.569 48.378)" fill="#006e42" fill-rule="evenodd"/><path d="M203.746,58.534l6.12-16.014,19.477-.04a4.36,4.36,0,0,1,4.382,5.841L229.9,58.556l-8.4-.04,2.946-7.758c0-.732-.165-.964-.778-1.005l-8.259.013-3.32,8.77-8.336,0Z" transform="translate(67.421 49.542)" fill="#006e42" fill-rule="evenodd"/><path d="M184.719,42.474l20.267.015a4.307,4.307,0,0,1,4.382,5.768l-3.83,10.237-8.46.019,3-7.818c0-.732-.165-.9-.778-.946l-17.265-.013,2.68-7.262Z" transform="translate(62.218 49.541)" fill="#006e42" fill-rule="evenodd"/><path d="M179.338,56.821l.542-1.5,10.529-5.715-2.757,7.211Z" transform="translate(61.57 51.251)" fill="#006e42" fill-rule="evenodd"/><path d="M177.875,37.68l-8.141,21.953h8.306l8.223-21.953h-8.388Z" transform="translate(59.268 48.392)" fill="#006e42" fill-rule="evenodd"/><path d="M119.383,58.388l.512-1.5h27.927L140.406,64.1l-16.719.03a4.253,4.253,0,0,1-4.3-5.744" transform="translate(47.132 52.996)" fill="#142b5e" fill-rule="evenodd"/><path d="M50.707,58.458l.555-1.5H73.4l-5.861,7.116L55.2,64.088c-2.605.054-5.42-1.915-4.491-5.63" transform="translate(30.692 53.012)" fill="#142b5e" fill-rule="evenodd"/><path d="M69.931,58.593l.61-1.7,26.89-.029-1.089,2.92a7.049,7.049,0,0,1-6.319,4.341l-16.049.035a4.341,4.341,0,0,1-4.043-5.572" transform="translate(35.31 52.992)" fill="#142b5e" fill-rule="evenodd"/><path d="M94.816,58.588l.61-1.7,26.89-.029-1.089,2.92a7.143,7.143,0,0,1-6.319,4.338l-16.049.023a4.329,4.329,0,0,1-4.043-5.557" transform="translate(41.275 52.99)" fill="#142b5e" fill-rule="evenodd"/><path d="M178.256,58.627l.61-1.7,26.89-.029-1.089,2.92a7.143,7.143,0,0,1-6.319,4.338l-16.049.023a4.329,4.329,0,0,1-4.043-5.557" transform="translate(61.277 53)" fill="#142b5e" fill-rule="evenodd"/><path d="M172.5,56.908l-1.078,2.9a6.917,6.917,0,0,1-6.506,4.4l-13.628.009-2.317,6.064-8.387-.017,5.075-13.4,26.842.039Z" transform="translate(52.281 52.991)" fill="#142b5e" fill-rule="evenodd"/><path d="M169.7,56.911,167.028,64.1h8.306l2.654-7.168Z" transform="translate(58.62 53.001)" fill="#142b5e" fill-rule="evenodd"/><path d="M203.738,56.979l-2.668,7.194h8.305L212.03,57l-8.292-.026Z" transform="translate(66.78 53.018)" fill="#142b5e" fill-rule="evenodd"/><path d="M218.014,56.981l-2.668,7.193h8.306l2.654-7.168-8.292-.026Z" transform="translate(70.202 53.018)" fill="#142b5e" fill-rule="evenodd"/><path d="M47.661,78.442c-.122.306-.221.613-.32.919a3.591,3.591,0,0,1-1.559.4,1.6,1.6,0,0,1-1.034-.332,1.707,1.707,0,0,1-.58-.924,3.025,3.025,0,0,1-.082-1.35,15.353,15.353,0,0,1,.377-1.548,14.028,14.028,0,0,1,.528-1.6,15.658,15.658,0,0,1,.7-1.51,9.1,9.1,0,0,1,.8-1.243,4.059,4.059,0,0,1,1.405-1.17,3.22,3.22,0,0,1,1.412-.36,1.839,1.839,0,0,1,1.2.315c-.126.329-.253.658-.355.986a1.365,1.365,0,0,0-1.07-.4,2.2,2.2,0,0,0-1.536.673,4.566,4.566,0,0,0-.724.926,12.878,12.878,0,0,0-.679,1.37,15.009,15.009,0,0,0-.594,1.57,9.046,9.046,0,0,0-.374,1.532c-.03.225-.02.474-.029.739a3.538,3.538,0,0,0,.046.717.948.948,0,0,0,.291.523.99.99,0,0,0,.7.228,3.191,3.191,0,0,0,1.474-.454m6.5-4.015a14.891,14.891,0,0,0,.52-1.957c.21-1.248-.064-1.872-.846-1.873a1.534,1.534,0,0,0-.613.121,2.254,2.254,0,0,0-.682.527,5.055,5.055,0,0,0-.774,1.22,18.635,18.635,0,0,0-.827,2.1c-.03.087-.109.3-.227.644s-.2.67-.281.967a7.153,7.153,0,0,0-.219.881c-.184,1.209.1,1.819.832,1.816a1.583,1.583,0,0,0,1.126-.5,4.57,4.57,0,0,0,.891-1.212c.248-.484.449-.91.6-1.29S53.975,75.017,54.164,74.428Zm-4.619,1.255c.07-.227.177-.488.275-.793s.164-.535.208-.673a12.865,12.865,0,0,1,.829-1.972A6.538,6.538,0,0,1,52.2,70.48a2.766,2.766,0,0,1,1.958-.781,1.4,1.4,0,0,1,1.357.676,3.271,3.271,0,0,1,.158,2.017c-.086.509-.246,1.034-.384,1.573a15.492,15.492,0,0,1-.566,1.669,13.051,13.051,0,0,1-.982,2.029,5.568,5.568,0,0,1-1.32,1.505,2.662,2.662,0,0,1-1.734.6,1.36,1.36,0,0,1-1.346-.729,3.309,3.309,0,0,1-.126-1.93,13.008,13.008,0,0,1,.334-1.424m9.491-5.814h.854c-.257,1.379-.538,2.757-.771,4.133s-.49,2.752-.722,4.126h.024a16.39,16.39,0,0,1,.724-1.614q.506-.978.951-1.834c.3-.579.736-1.406,1.324-2.494s1-1.86,1.247-2.314h.83c-.348,1.631-.72,3.263-1.044,4.891s-.672,3.256-1,4.882h-.971c.1-.433.3-1.19.553-2.281.124-.543.224-1.043.325-1.5s.232-.858.326-1.224c.185-.721.3-1.329.427-1.818s.228-.923.341-1.309h-.047c-.17.445-.44.978-.744,1.59s-.674,1.322-1.1,2.125-.829,1.6-1.256,2.377-.792,1.461-1.055,2.032h-.8c.229-1.353.482-2.707.711-4.061s.506-2.711.759-4.068H58.9c-.177.485-.389,1.039-.66,1.66s-.623,1.378-1.073,2.281-.8,1.665-1.1,2.3-.592,1.264-.863,1.884h-.971c.8-1.626,1.615-3.255,2.388-4.883s1.618-3.26,2.416-4.89m6.924.011,1.4,0a2.261,2.261,0,0,1,1.656.445,1.43,1.43,0,0,1,.236,1.257,5.993,5.993,0,0,1-.169.712,3.9,3.9,0,0,1-1.022,1.818,2.853,2.853,0,0,1-1.238.727,6.036,6.036,0,0,1-1.327.134h-.284c-.275.781-.574,1.562-.825,2.341s-.526,1.558-.777,2.337h-.994c.537-1.626,1.122-3.253,1.66-4.881s1.124-3.259,1.686-4.889Zm.691.82c-.216.572-.409,1.146-.6,1.718l-.577,1.716h.545a2.513,2.513,0,0,0,.827-.122,1.474,1.474,0,0,0,.687-.552,3.852,3.852,0,0,0,.576-1.292c.036-.131.046-.267.069-.4a.863.863,0,0,0-.167-.829,1.712,1.712,0,0,0-1.074-.237h-.284m5.949-.81-.625,4.889q-.312,2.441-.624,4.879H70.31c.09-.664.18-1.329.294-1.993l-2.226,0c-.374.664-.725,1.329-1.075,1.993H66.261c.893-1.625,1.811-3.252,2.7-4.878s1.814-3.257,2.709-4.886l.925,0Zm-3.8,6.956,1.919,0c.069-.538.138-1.079.23-1.618l.278-1.62c.018-.1-.014-.195,0-.273.024-.143.13-.485.25-1.042s.211-.953.251-1.186H71.68c-.322.633-.634,1.274-.944,1.91s-.67,1.278-.991,1.914-.621,1.276-.943,1.912M79.1,69.9l.854,0c-.566,1.629-1.156,3.259-1.7,4.885s-1.106,3.252-1.646,4.876h-.9c.006-.449.006-1.068-.012-1.856s-.056-1.6-.077-2.442-.016-1.557-.007-2.161a10.334,10.334,0,0,1,.071-1.377h-.047c-.07.267-.171.648-.313,1.134s-.268.857-.357,1.11c-.328.932-.7,1.866-1,2.8s-.628,1.862-.93,2.793H72.2c.539-1.625,1.1-3.251,1.643-4.878s1.129-3.257,1.717-4.886h.83c0,.114.019.767.018,1.962,0,.6.017,1.139.006,1.62s.01.9.019,1.268c.016.73.049,1.369.049,1.917s.012.894-.012,1.032h.047c.164-.679.295-1.194.407-1.538.34-1.043.715-2.085,1.06-3.126s.739-2.086,1.109-3.131m6.9.011c-.567,1.628-1.159,3.258-1.7,4.883s-1.109,3.251-1.651,4.875h-.971l.862-2.514.863-2.518-2.417,0c-.288.84-.6,1.68-.862,2.518s-.574,1.676-.837,2.514h-.971c.541-1.624,1.106-3.25,1.648-4.876s1.108-3.256,1.674-4.884l1,0q-.383.977-.694,1.952c-.207.649-.438,1.3-.645,1.948l2.394,0c.207-.649.439-1.3.646-1.948s.463-1.3.694-1.952H86m2.7,0c-.592,1.628-1.184,3.257-1.727,4.882s-1.11,3.25-1.653,4.874h-.971c.542-1.623,1.109-3.249,1.652-4.874s1.135-3.255,1.7-4.883l1,0m3.794.006-.64,4.883q-.319,2.438-.639,4.873H90.2c.092-.663.184-1.327.3-1.991l-2.25,0c-.376.664-.729,1.327-1.081,1.99H86.127c.9-1.623,1.821-3.248,2.72-4.872s1.8-3.253,2.724-4.88H92.5Zm-3.82,6.947,1.919,0c.07-.537.141-1.078.235-1.616l.283-1.618a2.3,2.3,0,0,0,.024-.272c.009-.139.1-.486.229-1.04s.237-.952.278-1.184h-.071c-.3.633-.648,1.268-.973,1.908s-.64,1.28-.95,1.912-.649,1.274-.973,1.91m9.654-6.938,1.375,0a3.049,3.049,0,0,1,1.378.256,1.189,1.189,0,0,1,.593.805,3.681,3.681,0,0,1-.021,1.466c-.066.372-.147.764-.254,1.168s-.236.8-.374,1.181-.3.779-.471,1.2c-.241.583-.438,1.063-.632,1.432a4.975,4.975,0,0,1-.76,1.085,3.536,3.536,0,0,1-1.19.842,4.219,4.219,0,0,1-1.714.318h-1.3c.545-1.622,1.1-3.25,1.66-4.871s1.14-3.252,1.711-4.879Zm.663.818c-.475,1.353-.95,2.706-1.4,4.057s-.925,2.7-1.375,4.05h.213a3.316,3.316,0,0,0,1.068-.15,2.151,2.151,0,0,0,.8-.5,4.179,4.179,0,0,0,.692-.971,11.34,11.34,0,0,0,.761-1.632c.118-.322.2-.614.294-.862s.16-.507.256-.779.166-.539.237-.8.117-.531.163-.789a1.786,1.786,0,0,0-.1-1.2c-.164-.279-.591-.417-1.231-.418h-.379m8.349-.8c-.1.273-.191.545-.263.817l-2.324,0-.59,1.729c-.2.576-.417,1.152-.613,1.727l2.251,0c-.1.28-.194.559-.267.838l-2.275,0c-.231.636-.462,1.272-.669,1.906s-.437,1.27-.644,1.9l2.321,0-.288.825-3.291,0c.547-1.622,1.117-3.245,1.665-4.869s1.143-3.251,1.715-4.877l3.273.005m4.316.007,1.375,0a2.252,2.252,0,0,1,1.653.443,1.444,1.444,0,0,1,.227,1.253c-.033.185-.092.423-.174.71a3.788,3.788,0,0,1-1.011,1.812,2.9,2.9,0,0,1-1.267.725,6,6,0,0,1-1.3.134h-.308c-.281.778-.561,1.557-.818,2.334s-.537,1.554-.793,2.33h-.971c.549-1.621,1.121-3.244,1.67-4.867s1.147-3.249,1.721-4.875Zm.661.818-.59,1.713L111.14,74.2h.545a2.486,2.486,0,0,0,.8-.121,1.577,1.577,0,0,0,.691-.551,3.862,3.862,0,0,0,.585-1.288c.037-.131.048-.267.071-.4a.9.9,0,0,0-.161-.827,1.7,1.7,0,0,0-1.1-.237h-.261m5.267-.808c-.527,1.488-1.078,2.975-1.58,4.461s-1.028,2.97-1.53,4.453l2.273,0-.29.824-3.22,0c.55-1.62,1.124-3.243,1.674-4.865s1.126-3.248,1.7-4.873h.972m5.265.009q-.332,2.438-.663,4.873l-.662,4.864h-1.018c.1-.661.191-1.324.31-1.987l-2.227,0c-.356.663-.711,1.325-1.091,1.987h-1.042c.906-1.62,1.836-3.242,2.743-4.863s1.815-3.246,2.747-4.871h.9Zm-3.806,6.934,1.9,0c.073-.536.146-1.076.242-1.613s.17-1.077.266-1.615a2.292,2.292,0,0,0,.025-.272c.01-.139.122-.481.258-1.038s.218-.95.26-1.182h-.047c-.327.631-.664,1.262-.982,1.9S120.33,74.365,120,75s-.631,1.272-.958,1.906m10.3-6.923h.83c-.579,1.624-1.192,3.245-1.758,4.869s-1.131,3.242-1.685,4.861h-.852c.01-.448-.009-1.064-.021-1.85s-.02-1.6-.035-2.434-.028-1.552-.014-2.154a9.543,9.543,0,0,1,.105-1.372h-.071a11.342,11.342,0,0,1-.3,1.13c-.148.49-.275.854-.366,1.106-.335.929-.691,1.86-1,2.788s-.642,1.856-.952,2.784h-.852c.576-1.619,1.152-3.241,1.7-4.862s1.154-3.247,1.732-4.871h.83c-.02.113,0,.764,0,1.956,0,.6.008,1.136-.007,1.615s0,.9.009,1.264q.016,1.092.01,1.91c0,.548-.019.891-.02,1.028h.024c.193-.677.328-1.19.443-1.533.348-1.039.731-2.078,1.085-3.116s.755-2.08,1.157-3.121m5.786.01-.29.815-2.324,0-.6,1.726-.6,1.724,2.251,0-.294.836-2.227,0c-.234.635-.491,1.27-.7,1.9s-.443,1.268-.652,1.9l2.3,0c-.1.275-.194.549-.268.823l-3.268,0c.554-1.619,1.131-3.24,1.686-4.86s1.133-3.245,1.712-4.869l3.273.005m2.4,0,.972,0c-.483,1.349-.99,2.7-1.449,4.047s-.942,2.694-1.4,4.041a3.975,3.975,0,0,1-.472,1.029,1.608,1.608,0,0,1-.542.5,1.933,1.933,0,0,1-.724.206c-.141.013-.26,0-.379,0a2.008,2.008,0,0,1-1.047-.233c.1-.309.207-.618.334-.928a1.076,1.076,0,0,0,.818.451.91.91,0,0,0,.59-.247,1.377,1.377,0,0,0,.4-.653c.464-1.367.972-2.737,1.435-4.106s.974-2.74,1.461-4.112m4.79.008-.678,4.867-.676,4.858h-1.018c.1-.661.195-1.323.316-1.984l-2.226,0c-.405.662-.763,1.323-1.12,1.984H135.9q1.366-2.426,2.758-4.857c.921-1.615,1.825-3.242,2.762-4.864h.9Zm-3.827,6.925,1.9,0c.075-.535.149-1.074.247-1.611s.173-1.075.272-1.613a2.31,2.31,0,0,0,.026-.271c.01-.139.123-.48.261-1.037s.221-.949.263-1.18h-.071c-.305.631-.644,1.26-.964,1.9s-.636,1.272-.965,1.906-.659,1.27-.964,1.9m7.692-6.919h.854c-.276,1.371-.575,2.741-.827,4.111s-.527,2.736-.778,4.1h.024c.173-.426.428-.965.745-1.6s.647-1.257.952-1.824.769-1.4,1.357-2.48,1-1.849,1.254-2.3h.83c-.37,1.622-.764,3.245-1.11,4.864s-.716,3.238-1.061,4.855h-.947c.127-.43.321-1.183.584-2.268.131-.54.238-1.037.345-1.487s.229-.857.319-1.217c.18-.72.327-1.324.452-1.808s.264-.917.359-1.3h-.047c-.176.442-.425.964-.742,1.581s-.692,1.314-1.124,2.114-.869,1.58-1.288,2.364-.765,1.453-1.059,2.021h-.781c.247-1.345.518-2.692.766-4.039s.519-2.7.791-4.046h-.024c-.16.482-.4,1.033-.683,1.651s-.642,1.371-1.08,2.268-.811,1.652-1.131,2.289-.61,1.257-.888,1.873H141.3c.794-1.617,1.636-3.236,2.43-4.855s1.638-3.242,2.458-4.863m10.126.017-.293.813-2.324,0-.6,1.723-.6,1.721,2.251,0-.3.835-2.227,0c-.236.634-.5,1.268-.707,1.9s-.447,1.266-.659,1.9l2.3,0c-.1.275-.2.548-.271.822l-3.268,0c.559-1.617,1.142-3.235,1.7-4.854s1.144-3.241,1.728-4.862l3.273.005m4.932.008h.83c-.587,1.62-1.2,3.242-1.759,4.859s-1.147,3.235-1.708,4.851h-.852q.018-.671-.012-1.846c-.02-.788-.011-1.6-.023-2.429s-.02-1.549,0-2.15a9.5,9.5,0,0,1,.112-1.369h-.071a11.353,11.353,0,0,1-.3,1.128c-.15.489-.279.853-.371,1.1-.34.927-.7,1.856-1.014,2.782s-.652,1.852-.965,2.778h-.829c.56-1.616,1.145-3.234,1.705-4.852s1.146-3.24,1.732-4.861h.83c0,.113-.007.761-.007,1.952,0,.6.026,1.134.009,1.612s0,.9,0,1.261q.011,1.089,0,1.907c-.007.547-.023.889-.025,1.026h.024c.173-.676.334-1.187.45-1.53.353-1.037.742-2.074,1.1-3.109s.766-2.076,1.149-3.114m5.881.009-.295.812-1.565,0c-.538,1.485-1.1,2.969-1.614,4.452s-1.051,2.964-1.564,4.444h-.947c.513-1.48,1.05-2.963,1.564-4.444s1.052-2.967,1.59-4.452l-1.565,0,.294-.813,4.1.007m3.109,4.538a14.883,14.883,0,0,0,.555-1.942q.349-1.859-.789-1.86a1.519,1.519,0,0,0-.592.12,1.973,1.973,0,0,0-.691.524,6.052,6.052,0,0,0-.772,1.211,18.748,18.748,0,0,0-.865,2.086c-.032.087-.093.3-.215.64s-.231.665-.322.959a6.4,6.4,0,0,0-.235.874c-.186,1.2.089,1.806.8,1.8a1.6,1.6,0,0,0,1.088-.5,4.656,4.656,0,0,0,.913-1.2,13.666,13.666,0,0,0,.6-1.281c.154-.376.33-.848.53-1.433Zm-4.523,1.246c.072-.219.162-.485.266-.788s.2-.527.243-.668a14.12,14.12,0,0,1,.841-1.957,6.6,6.6,0,0,1,1.372-1.752,2.678,2.678,0,0,1,1.9-.775,1.356,1.356,0,0,1,1.321.671,3.212,3.212,0,0,1,.122,2c-.1.506-.264,1.026-.412,1.562a15.613,15.613,0,0,1-.6,1.656,14.417,14.417,0,0,1-.995,2.014,5.254,5.254,0,0,1-1.347,1.494,2.678,2.678,0,0,1-1.7.593,1.3,1.3,0,0,1-1.309-.724,3.249,3.249,0,0,1-.091-1.916,11.686,11.686,0,0,1,.383-1.413m11.564-5.768,1.375,0a2.826,2.826,0,0,1,1.328.255,1.188,1.188,0,0,1,.607.8,3.665,3.665,0,0,1-.039,1.46,10.864,10.864,0,0,1-.291,1.162c-.124.4-.246.8-.389,1.175s-.309.775-.486,1.19c-.248.58-.461,1.053-.649,1.425a4.964,4.964,0,0,1-.749,1.079,3.505,3.505,0,0,1-1.177.838,4.108,4.108,0,0,1-1.717.316h-1.279c.565-1.614,1.154-3.23,1.72-4.846s1.156-3.236,1.747-4.855Zm.653.813c-.492,1.347-.983,2.693-1.451,4.038l-1.4,4.03h.189a3.355,3.355,0,0,0,1.07-.149,2,2,0,0,0,.8-.5,4.535,4.535,0,0,0,.68-.966,11.636,11.636,0,0,0,.758-1.623c.121-.321.211-.611.3-.858s.179-.507.265-.775.173-.536.246-.8.147-.528.2-.785a1.744,1.744,0,0,0-.105-1.2c-.161-.278-.562-.416-1.154-.416h-.4m7.188,3.728a12.94,12.94,0,0,0,.559-1.94c.236-1.238,0-1.857-.761-1.859a1.643,1.643,0,0,0-.616.12,1.907,1.907,0,0,0-.669.523,6.539,6.539,0,0,0-.775,1.209,13.69,13.69,0,0,0-.894,2.084c-.028.081-.1.3-.216.639s-.231.659-.324.958a7.106,7.106,0,0,0-.237.874c-.208,1.2.085,1.8.771,1.8a1.665,1.665,0,0,0,1.137-.5,4.925,4.925,0,0,0,.916-1.2,9.474,9.474,0,0,0,.6-1.279c.142-.372.3-.85.51-1.431Zm-4.526,1.245c.063-.221.153-.487.268-.787s.194-.528.245-.667a17.2,17.2,0,0,1,.869-1.955,6.315,6.315,0,0,1,1.352-1.75,2.749,2.749,0,0,1,1.926-.774,1.316,1.316,0,0,1,1.3.67,3.2,3.2,0,0,1,.117,2c-.1.505-.243,1.025-.392,1.56a15.657,15.657,0,0,1-.6,1.655,13.234,13.234,0,0,1-1.023,2.012A5.639,5.639,0,0,1,183.3,79.3a2.677,2.677,0,0,1-1.7.592,1.317,1.317,0,0,1-1.307-.723,3.242,3.242,0,0,1-.087-1.914c.136-.662.306-1.127.386-1.412m11.364-5.763,1.376,0a2.857,2.857,0,0,1,1.3.255,1.192,1.192,0,0,1,.605.8,3.444,3.444,0,0,1-.043,1.458c-.071.37-.18.754-.294,1.161s-.247.8-.391,1.174-.287.774-.465,1.189c-.249.58-.486,1.052-.676,1.423a5.39,5.39,0,0,1-.752,1.078,3.4,3.4,0,0,1-1.155.837,4.116,4.116,0,0,1-1.718.316h-1.3c.569-1.613,1.162-3.227,1.731-4.842s1.187-3.233,1.782-4.85Zm.627.813c-.495,1.346-.989,2.691-1.46,4.034l-1.41,4.026h.213a3.311,3.311,0,0,0,1.047-.149,2.009,2.009,0,0,0,.806-.5,4.512,4.512,0,0,0,.706-.965,14.515,14.515,0,0,0,.737-1.622c.132-.325.247-.607.33-.857s.178-.5.267-.774.174-.536.248-.8.125-.528.174-.784a1.663,1.663,0,0,0-.1-1.2c-.169-.273-.561-.415-1.154-.416h-.4m5.989-.8c-.572,1.617-1.168,3.234-1.739,4.848s-1.166,3.228-1.736,4.84h-.971c.57-1.612,1.165-3.226,1.735-4.84s1.167-3.232,1.762-4.848h.948M196.7,79.408c.121-.383.266-.767.412-1.152a1.8,1.8,0,0,0,1.433.8,2.125,2.125,0,0,0,1.45-.642,2.5,2.5,0,0,0,.789-1.385,1.391,1.391,0,0,0-.44-1.4c-.438-.382-.8-.662-1.016-.873a2.127,2.127,0,0,1-.5-.727,1.556,1.556,0,0,1-.076-.957,5.015,5.015,0,0,1,.247-.788,3.8,3.8,0,0,1,.859-1.26,3.661,3.661,0,0,1,1.149-.788,3.156,3.156,0,0,1,1.237-.263,2.028,2.028,0,0,1,1.445.5c-.146.386-.292.773-.414,1.158a1.347,1.347,0,0,0-1.226-.774,2.042,2.042,0,0,0-.92.222,2.366,2.366,0,0,0-.756.6,2.013,2.013,0,0,0-.441.812,1.688,1.688,0,0,1-.081.3,1.4,1.4,0,0,0,.192.974,5.234,5.234,0,0,0,1.1,1.058,1.846,1.846,0,0,1,.768,1.915,3.538,3.538,0,0,1-.458,1.147,4.456,4.456,0,0,1-.862,1.029,4.291,4.291,0,0,1-1.136.733,3.1,3.1,0,0,1-1.26.269,3.039,3.039,0,0,1-.83-.12,1.327,1.327,0,0,1-.661-.382m12.228-9.3-.3.81-1.541,0c-.548,1.481-1.12,2.961-1.643,4.439s-1.07,2.956-1.594,4.432h-.971c.523-1.476,1.07-2.955,1.593-4.432s1.095-2.959,1.643-4.44l-1.565,0,.3-.81,4.079.007m.925,0,1.209,0a5.773,5.773,0,0,1,1.074.09,1.208,1.208,0,0,1,.762.473,1.525,1.525,0,0,1,.126,1.178A4.968,4.968,0,0,1,212,74.067a2.739,2.739,0,0,1-2.048,1.02c.084.786.192,1.572.276,2.356s.192,1.569.3,2.353h-1.018c-.107-.789-.19-1.577-.274-2.366s-.167-1.578-.226-2.368h0c-.3.789-.591,1.579-.863,2.367s-.567,1.577-.839,2.365h-.971c.573-1.611,1.171-3.223,1.745-4.836s1.173-3.229,1.772-4.844Zm.625.812-.616,1.7c-.205.567-.386,1.134-.591,1.7h.379a2.706,2.706,0,0,0,1.027-.161,1.526,1.526,0,0,0,.651-.543,3.938,3.938,0,0,0,.521-1.09,5.912,5.912,0,0,0,.166-.606c.078-.4.036-.669-.152-.8a1.627,1.627,0,0,0-.933-.2h-.451m5.588-.8c-.6,1.615-1.224,3.23-1.8,4.842s-1.175,3.224-1.75,4.834h-.971c.575-1.61,1.173-3.222,1.749-4.834s1.2-3.228,1.8-4.843l.972,0m4.956.008c-.1.271-.2.541-.278.81l-1.565,0c-.551,1.48-1.1,2.959-1.628,4.436s-1.1,2.953-1.626,4.429h-.947c.525-1.475,1.075-2.953,1.6-4.429s1.077-2.956,1.627-4.436l-1.565,0,.3-.81,4.079.007m3.047,4.522a17.38,17.38,0,0,0,.571-1.935c.243-1.235.009-1.853-.749-1.854a1.633,1.633,0,0,0-.593.12,2.057,2.057,0,0,0-.672.522,5.464,5.464,0,0,0-.806,1.206,12.952,12.952,0,0,0-.883,2.079c-.026.081-.1.3-.22.637s-.237.663-.33.956a6.426,6.426,0,0,0-.242.872c-.2,1.2.05,1.8.76,1.8a1.659,1.659,0,0,0,1.116-.495,4.412,4.412,0,0,0,.923-1.2,11.8,11.8,0,0,0,.63-1.276c.144-.371.3-.849.495-1.428Zm-4.51,1.242c.073-.218.166-.483.272-.785s.2-.525.249-.665a13,13,0,0,1,.881-1.951,6.517,6.517,0,0,1,1.339-1.746,2.812,2.812,0,0,1,1.931-.772,1.308,1.308,0,0,1,1.292.668,3.184,3.184,0,0,1,.1,2c-.1.5-.273,1.022-.425,1.556s-.384,1.083-.61,1.651a13.074,13.074,0,0,1-1.011,2.007,5.275,5.275,0,0,1-1.336,1.489,2.721,2.721,0,0,1-1.727.591,1.273,1.273,0,0,1-1.279-.722,3.224,3.224,0,0,1-.076-1.909,11.708,11.708,0,0,1,.4-1.408m14.6-5.743c-.1.271-.179.54-.256.809l-2.371,0-.625,1.716-.624,1.713,2.228,0c-.1.278-.2.554-.283.831l-2.227,0c-.294.767-.589,1.536-.858,2.3s-.564,1.532-.834,2.3h-.947c.579-1.608,1.171-3.222,1.737-4.829s1.183-3.225,1.788-4.838l3.273.005m4.671.008q-.152.406-.3.809l-2.3,0c-.208.572-.407,1.148-.6,1.715s-.417,1.142-.625,1.712l2.228,0c-.1.278-.205.554-.284.831l-2.227,0c-.244.631-.488,1.262-.708,1.89s-.464,1.26-.683,1.889l2.25,0c-.1.274-.2.545-.281.818l-3.22,0c.556-1.608,1.16-3.218,1.741-4.828s1.186-3.224,1.791-4.836l3.225.005m1.4,0,1.352,0a2.834,2.834,0,0,1,1.325.254,1.122,1.122,0,0,1,.6.8,3.638,3.638,0,0,1-.054,1.453,10.82,10.82,0,0,1-.3,1.158c-.128.4-.253.793-.4,1.17s-.313.764-.5,1.185c-.251.571-.471,1.049-.663,1.419a5.425,5.425,0,0,1-.76,1.075,3.291,3.291,0,0,1-1.162.834,4.224,4.224,0,0,1-1.721.315h-1.279c.581-1.607,1.186-3.217,1.768-4.826s1.188-3.223,1.795-4.835Zm.621.81c-.505,1.342-1,2.685-1.467,4.021s-.961,2.677-1.441,4.013h.189a3.234,3.234,0,0,0,1.048-.148,2.141,2.141,0,0,0,.81-.5,4.156,4.156,0,0,0,.737-.962,10.582,10.582,0,0,0,.726-1.617c.118-.321.23-.612.313-.854s.184-.505.273-.772.178-.534.254-.8.153-.526.2-.782a1.786,1.786,0,0,0-.094-1.192c-.144-.273-.534-.414-1.151-.415h-.4m8.248-.8-.3.808-2.3,0c-.186.572-.4,1.144-.6,1.714l-.628,1.711,2.228,0q-.154.416-.309.83l-2.2,0c-.245.63-.514,1.261-.734,1.889s-.465,1.259-.686,1.887l2.273,0c-.1.273-.2.545-.283.817l-3.22,0L244.079,75c.583-1.609,1.191-3.221,1.8-4.833l3.225.005m1.4,0,1.209,0a5.692,5.692,0,0,1,1.049.09,1.172,1.172,0,0,1,.759.472,1.491,1.491,0,0,1,.119,1.175,4.84,4.84,0,0,1-1.038,2.207,2.783,2.783,0,0,1-2.03,1.018c.079.784.17,1.569.237,2.35s.182,1.565.285,2.347H250.1q-.118-1.18-.235-2.36l-.235-2.362h0c-.3.787-.6,1.574-.878,2.361s-.577,1.573-.854,2.359h-.971c.583-1.606,1.191-3.215,1.776-4.823s1.193-3.22,1.8-4.831Zm.62.809-.627,1.7-.626,1.7h.4a2.631,2.631,0,0,0,1.028-.161,1.582,1.582,0,0,0,.631-.541,3.956,3.956,0,0,0,.527-1.087,5.884,5.884,0,0,0,.17-.6c.081-.4.04-.667-.147-.8a1.535,1.535,0,0,0-.908-.2h-.45m6.684-.8q-.383,2.416-.765,4.831l-.764,4.822h-1.018q.163-.984.328-1.97l-2.155,0c-.393.657-.763,1.313-1.132,1.969H251.3c.94-1.606,1.866-3.209,2.8-4.82s1.86-3.218,2.8-4.828l.9,0Zm-3.928,6.874,1.848,0c.108-.532.192-1.066.3-1.6l.324-1.6c.021-.1.015-.192.031-.269.028-.136.121-.479.256-1.03s.214-.942.261-1.172h-.024c-.34.626-.657,1.255-1,1.887s-.692,1.258-1.023,1.891-.634,1.261-.975,1.89m7.769-6.867c-.56,1.474-1.121,2.948-1.657,4.42s-1.1,2.942-1.63,4.411l2.25,0-.308.816-3.173,0c.563-1.605,1.173-3.213,1.76-4.82s1.2-3.218,1.81-4.828l.949,0" transform="translate(29.139 56.067)" fill="#1f1917"/></g><g transform="translate(392.22 20)"><g transform="translate(0)"><path d="M681.68,310.1s-13.254-11.006-28.58-11.006c7.87-2.663,16.272-9.467,21.657-26.45,2.663-8.639,4.438-17.337,6.864-32.544,2.071,11.834,2.426,16.864,6.864,32.544,4.142,13.077,11.42,23.136,21.6,26.45-14.734,0-28.4,11.006-28.4,11.006Z" transform="translate(-653.1 -240.1)" fill="#fff"/><g transform="translate(28.58 58.994)"><path d="M701.4,339.8v11.006S715.069,339.8,729.862,339.8Z" transform="translate(-701.4 -339.8)" fill="#00983a"/></g><g transform="translate(0 58.994)"><path d="M701.4,358.4Z" transform="translate(-672.82 -347.394)" fill="#f7c310"/><path d="M681.68,339.8H653.1c15.326,0,28.58,11.006,28.58,11.006h0Z" transform="translate(-653.1 -339.8)" fill="#f7c310"/></g><path d="M681.68,350.806S668.425,339.8,653.1,339.8h57.041C695.349,339.8,681.68,350.806,681.68,350.806Z" transform="translate(-653.1 -280.806)" fill="none" stroke="#000" stroke-miterlimit="10" stroke-width="0.188"/><g transform="translate(17.633 32.604)"><path d="M704.794,305.082a59.446,59.446,0,0,1-4.024-9.882H686.983a68.19,68.19,0,0,1-4.083,10.059V325.91c.059.059.177.059.237.118h21.657Z" transform="translate(-682.9 -295.2)" fill="#fff" stroke="#000" stroke-miterlimit="10" stroke-width="0.188"/></g><text transform="translate(18.558 60.931)" font-size="1" font-family="ArialMT, Arial"><tspan x="0" y="0">VENTVRIS VENTIS</tspan></text><rect width="15.266" height="20.71" transform="translate(20.947 38.225)" fill="#0d933f" stroke="#000" stroke-miterlimit="10" stroke-width="0.188"/><path d="M701.253,317l-.769-.71h-2.959v-3.018l-.71-.71v-1.361h.71L696.46,310.2l-1.065,1.006h.769v1.361l-.769.71v3.018h-2.958l-.769.71h-1.361v-.71L689.3,317.36l1.006,1.065v-.769h1.361l.769.769h2.958v2.959l.769.769v1.361h-.769l1.065,1.006,1.065-1.006h-.71v-1.361l.71-.769v-2.959h2.959l.769-.769,1.361.059v.71l1.006-1.065-1.006-1.065V317Z" transform="translate(-667.88 -268.721)" fill="#f7c310"/><rect width="3.018" height="3.018" transform="translate(30.716 48.639) rotate(135)" fill="#0d933f"/><path d="M693.569,298.583H692.8V297.4h1.716v1.953h-.947Z" transform="translate(-669.309 -263.495)" fill="#f7c310" stroke="#000" stroke-miterlimit="10" stroke-width="0.188"/><path d="M707.2,299.353V297.4h1.657v1.183h-.769v.769Z" transform="translate(-675.188 -263.495)" fill="#f7c310" stroke="#000" stroke-miterlimit="10" stroke-width="0.188"/><path d="M700.216,299.353H699.8v-.769h-1.3V297.4h3.254v1.183H700.63v.769Z" transform="translate(-671.636 -263.495)" fill="#f7c310" stroke="#000" stroke-miterlimit="10" stroke-width="0.188"/><path d="M690.1,301.116v1.006h2.367V299.4h-1.3v.828Z" transform="translate(-668.207 -264.311)" fill="#f7c310" stroke="#000" stroke-miterlimit="10" stroke-width="0.188"/><path d="M708.7,299.4v2.722h2.426v-1.006l-1.065-.888V299.4H708.7Z" transform="translate(-675.801 -264.311)" fill="#f7c310" stroke="#000" stroke-miterlimit="10" stroke-width="0.188"/><rect width="2.071" height="1.775" transform="translate(26.095 35.089)" fill="#f7c310" stroke="#000" stroke-miterlimit="10" stroke-width="0.188"/><rect width="2.071" height="1.775" transform="translate(28.994 35.089)" fill="#f7c310" stroke="#000" stroke-miterlimit="10" stroke-width="0.188"/><path d="M705.955,303.067v-.414H705.6V300.7h1.834v1.953h-.3v.414Z" transform="translate(-674.535 -264.842)" fill="#f7c310" stroke="#000" stroke-miterlimit="10" stroke-width="0.188"/><rect width="3.077" height="0.473" transform="translate(21.538 37.811)" fill="#f7c310" stroke="#000" stroke-miterlimit="10" stroke-width="0.188"/><rect width="5.621" height="0.473" transform="translate(25.799 37.811)" fill="#f7c310" stroke="#000" stroke-miterlimit="10" stroke-width="0.188"/><rect width="3.077" height="0.473" transform="translate(32.604 37.811)" fill="#f7c310" stroke="#000" stroke-miterlimit="10" stroke-width="0.188"/><path d="M694.4,303.067v-.414h-.3V300.7h1.834v1.953h-.3v.414Z" transform="translate(-669.84 -264.842)" fill="#f7c310" stroke="#000" stroke-miterlimit="10" stroke-width="0.188"/><rect width="2.071" height="1.006" transform="translate(28.994 36.805)" fill="#f7c310" stroke="#000" stroke-miterlimit="10" stroke-width="0.188"/><rect width="2.071" height="1.006" transform="translate(26.095 36.805)" fill="#f7c310" stroke="#000" stroke-miterlimit="10" stroke-width="0.188"/><g transform="translate(21.716 0)"><path d="M701.4,272.744h6.864c-4.438-15.68-4.852-20.71-6.864-32.544Z" transform="translate(-694.536 -240.141)" fill="#0d933f" stroke="#000" stroke-miterlimit="10" stroke-width="0.188"/><path d="M696.664,240.1h0c-2.426,15.266-4.2,23.964-6.864,32.544h6.864Z" transform="translate(-689.8 -240.1)" fill="#f7c310" stroke="#000" stroke-miterlimit="10" stroke-width="0.188"/></g><path d="M681.68,310.1s-13.254-11.006-28.58-11.006c7.87-2.663,16.272-9.467,21.657-26.45,2.663-8.639,4.438-17.337,6.864-32.544,2.071,11.834,2.426,16.864,6.864,32.544,4.142,13.077,11.42,23.136,21.6,26.45-14.734,0-28.4,11.006-28.4,11.006Z" transform="translate(-653.1 -240.1)" fill="none" stroke="#000" stroke-miterlimit="10" stroke-width="0.188"/></g></g><text transform="translate(374 60.959)" fill="#231f20" font-size="16" font-family="Montserrat-Bold, Montserrat" font-weight="700"><tspan x="-84.96" y="0">Secretaria</tspan><tspan x="-109.264" y="19">de Economia</tspan></text><text transform="translate(456 60.959)" fill="#231f20" font-size="16" font-family="Montserrat-Bold, Montserrat" font-weight="700"><tspan x="0" y="0">Governo do </tspan><tspan x="0" y="19">Distrito Federal</tspan></text></g></svg>